<svg xmlns="http://www.w3.org/2000/svg" height="64" width="64" viewBox="0 0 64 64"><title>sun</title><g fill="#8d8ea3" class="nc-icon-wrapper"><path data-color="color-2" d="M8,31H2c-0.553,0-1,0.448-1,1s0.447,1,1,1h6c0.553,0,1-0.448,1-1S8.553,31,8,31z"></path><path data-color="color-2" d="M14.322,15.736c0.195,0.195,0.451,0.293,0.707,0.293s0.512-0.098,0.707-0.293 c0.391-0.391,0.391-1.023,0-1.414l-4.242-4.243c-0.391-0.391-1.023-0.391-1.414,0s-0.391,1.023,0,1.414L14.322,15.736z"></path><path data-color="color-2" d="M32,9c0.553,0,1-0.448,1-1V2c0-0.552-0.447-1-1-1s-1,0.448-1,1v6C31,8.552,31.447,9,32,9z"></path><path data-color="color-2" d="M52.506,10.08l-4.242,4.243c-0.391,0.391-0.391,1.023,0,1.414 c0.195,0.195,0.451,0.293,0.707,0.293s0.512-0.098,0.707-0.293l4.242-4.243c0.391-0.391,0.391-1.023,0-1.414 S52.896,9.689,52.506,10.08z"></path><path data-color="color-2" d="M62,31h-6c-0.553,0-1,0.448-1,1s0.447,1,1,1h6c0.553,0,1-0.448,1-1S62.553,31,62,31z"></path><path data-color="color-2" d="M49.678,48.264c-0.391-0.391-1.023-0.391-1.414,0s-0.391,1.023,0,1.414l4.242,4.243 c0.195,0.195,0.451,0.293,0.707,0.293s0.512-0.098,0.707-0.293c0.391-0.391,0.391-1.023,0-1.414L49.678,48.264z"></path><path data-color="color-2" d="M32,55c-0.553,0-1,0.448-1,1v6c0,0.552,0.447,1,1,1s1-0.448,1-1v-6 C33,55.448,32.553,55,32,55z"></path><path data-color="color-2" d="M14.322,48.264l-4.242,4.243c-0.391,0.391-0.391,1.023,0,1.414 c0.195,0.195,0.451,0.293,0.707,0.293s0.512-0.098,0.707-0.293l4.242-4.243c0.391-0.391,0.391-1.023,0-1.414 S14.713,47.873,14.322,48.264z"></path><path fill="#253758" d="M32,15c-9.374,0-17,7.626-17,17s7.626,17,17,17s17-7.626,17-17S41.374,15,32,15z"></path></g></svg>